<?xml version="1.0" encoding="UTF-8" standalone="no"?><svg xmlns="http://www.w3.org/2000/svg" xmlns:xlink="http://www.w3.org/1999/xlink" contentScriptType="application/ecmascript" contentStyleType="text/css" height="246px" preserveAspectRatio="none" style="width:863px;height:246px;background:#FFFFFF;" version="1.1" viewBox="0 0 863 246" width="863px" zoomAndPan="magnify"><defs><filter height="300%" id="fbxc6modqz45n" width="300%" x="-1" y="-1"><feGaussianBlur result="blurOut" stdDeviation="2.0"/><feColorMatrix in="blurOut" result="blurOut2" type="matrix" values="0 0 0 0 0 0 0 0 0 0 0 0 0 0 0 0 0 0 .4 0"/><feOffset dx="4.0" dy="4.0" in="blurOut2" result="blurOut3"/><feBlend in="SourceGraphic" in2="blurOut3" mode="normal"/></filter></defs><g><!--MD5=[9374376f926d25a5a0360dfa27a3cccd]
cluster md.python.graph--><polygon fill="#FFFFFF" filter="url(#fbxc6modqz45n)" points="16,6,142,6,149,28.4883,846,28.4883,846,239,16,239,16,6" style="stroke:#000000;stroke-width:1.5;"/><line style="stroke:#000000;stroke-width:1.5;" x1="16" x2="149" y1="28.4883" y2="28.4883"/><text fill="#000000" font-family="sans-serif" font-size="14" font-weight="bold" lengthAdjust="spacing" textLength="120" x="20" y="21.5352">md.python.graph</text><!--MD5=[4d8716ec479ab0c679ff5ce693b27b77]
class GraphExceptionInterface--><rect codeLine="11" fill="#EBEBEB" filter="url(#fbxc6modqz45n)" height="48" id="GraphExceptionInterface" style="stroke:#333333;stroke-width:1.5;" width="174" x="33" y="47.5"/><ellipse cx="48" cy="63.5" fill="#B4A7E5" rx="11" ry="11" style="stroke:#333333;stroke-width:1.0;"/><path d="M44.4277,59.7651 L44.4277,57.6069 L51.8071,57.6069 L51.8071,59.7651 L49.3418,59.7651 L49.3418,67.8418 L51.8071,67.8418 L51.8071,70 L44.4277,70 L44.4277,67.8418 L46.8931,67.8418 L46.8931,59.7651 Z " fill="#000000"/><text fill="#000000" font-family="sans-serif" font-size="12" font-style="italic" lengthAdjust="spacing" textLength="142" x="62" y="68.0352">GraphExceptionInterface</text><line style="stroke:#333333;stroke-width:1.5;" x1="34" x2="206" y1="79.5" y2="79.5"/><line style="stroke:#333333;stroke-width:1.5;" x1="34" x2="206" y1="87.5" y2="87.5"/><!--MD5=[5c295046665acc298a8732fb375c2d07]
class TopologicalSortException--><rect codeLine="13" fill="#EBEBEB" filter="url(#fbxc6modqz45n)" height="60.9551" id="TopologicalSortException" style="stroke:#333333;stroke-width:1.5;" width="176" x="32" y="162"/><ellipse cx="47" cy="178" fill="#ADD1B2" rx="11" ry="11" style="stroke:#333333;stroke-width:1.0;"/><path d="M49.4731,184.1431 Q48.8921,184.4419 48.2529,184.5913 Q47.6138,184.7407 46.9082,184.7407 Q44.4014,184.7407 43.0815,183.0889 Q41.7617,181.437 41.7617,178.3159 Q41.7617,175.1865 43.0815,173.5347 Q44.4014,171.8828 46.9082,171.8828 Q47.6138,171.8828 48.2612,172.0322 Q48.9087,172.1816 49.4731,172.4805 L49.4731,175.2031 Q48.8423,174.6221 48.2488,174.3523 Q47.6553,174.0825 47.0244,174.0825 Q45.6797,174.0825 44.9949,175.1492 Q44.3101,176.2158 44.3101,178.3159 Q44.3101,180.4077 44.9949,181.4744 Q45.6797,182.541 47.0244,182.541 Q47.6553,182.541 48.2488,182.2712 Q48.8423,182.0015 49.4731,181.4204 Z " fill="#000000"/><text fill="#000000" font-family="sans-serif" font-size="12" lengthAdjust="spacing" textLength="144" x="61" y="182.5352">TopologicalSortException</text><line style="stroke:#333333;stroke-width:1.5;" x1="33" x2="207" y1="194" y2="194"/><ellipse cx="43" cy="205" rx="3" ry="3" style="stroke:#038048;stroke-width:1.0;fill:none;"/><text fill="#000000" font-family="sans-serif" font-size="11" lengthAdjust="spacing" textLength="119" x="52" y="208.6348">CYCLE_DETECTED = 1</text><line style="stroke:#333333;stroke-width:1.5;" x1="33" x2="207" y1="214.9551" y2="214.9551"/><!--MD5=[2844c8f983d6e3d0f65e506f4cca31f8]
class TopologicalSortInterface--><rect codeLine="17" fill="#EBEBEB" filter="url(#fbxc6modqz45n)" height="60.9551" id="TopologicalSortInterface" style="stroke:#333333;stroke-width:1.5;" width="276" x="398" y="41"/><ellipse cx="462.75" cy="57" fill="#B4A7E5" rx="11" ry="11" style="stroke:#333333;stroke-width:1.0;"/><path d="M459.1777,53.2651 L459.1777,51.1069 L466.5571,51.1069 L466.5571,53.2651 L464.0918,53.2651 L464.0918,61.3418 L466.5571,61.3418 L466.5571,63.5 L459.1777,63.5 L459.1777,61.3418 L461.6431,61.3418 L461.6431,53.2651 Z " fill="#000000"/><text fill="#000000" font-family="sans-serif" font-size="12" font-style="italic" lengthAdjust="spacing" textLength="138" x="483.25" y="61.5352">TopologicalSortInterface</text><line style="stroke:#333333;stroke-width:1.5;" x1="399" x2="673" y1="73" y2="73"/><line style="stroke:#333333;stroke-width:1.5;" x1="399" x2="673" y1="81" y2="81"/><ellipse cx="409" cy="92" fill="#84BE84" rx="3" ry="3" style="stroke:#038048;stroke-width:1.0;"/><text fill="#000000" font-family="sans-serif" font-size="11" lengthAdjust="spacing" textLength="250" x="418" y="95.6348">sort(graph: GraphType) -&gt; Iterable[NodeType]</text><!--MD5=[a19ce7f13faedd5781654e1ff1a2a5f3]
class AscendingTopologicalSort--><rect codeLine="21" fill="#EBEBEB" filter="url(#fbxc6modqz45n)" height="60.9551" id="AscendingTopologicalSort" style="stroke:#333333;stroke-width:1.5;" width="276" x="243" y="162"/><ellipse cx="303.25" cy="178" fill="#ADD1B2" rx="11" ry="11" style="stroke:#333333;stroke-width:1.0;"/><path d="M305.7231,184.1431 Q305.1421,184.4419 304.5029,184.5913 Q303.8638,184.7407 303.1582,184.7407 Q300.6514,184.7407 299.3315,183.0889 Q298.0117,181.437 298.0117,178.3159 Q298.0117,175.1865 299.3315,173.5347 Q300.6514,171.8828 303.1582,171.8828 Q303.8638,171.8828 304.5112,172.0322 Q305.1587,172.1816 305.7231,172.4805 L305.7231,175.2031 Q305.0923,174.6221 304.4988,174.3523 Q303.9053,174.0825 303.2744,174.0825 Q301.9297,174.0825 301.2449,175.1492 Q300.5601,176.2158 300.5601,178.3159 Q300.5601,180.4077 301.2449,181.4744 Q301.9297,182.541 303.2744,182.541 Q303.9053,182.541 304.4988,182.2712 Q305.0923,182.0015 305.7231,181.4204 Z " fill="#000000"/><text fill="#000000" font-family="sans-serif" font-size="12" lengthAdjust="spacing" textLength="147" x="323.75" y="182.5352">AscendingTopologicalSort</text><line style="stroke:#333333;stroke-width:1.5;" x1="244" x2="518" y1="194" y2="194"/><line style="stroke:#333333;stroke-width:1.5;" x1="244" x2="518" y1="202" y2="202"/><ellipse cx="254" cy="213" fill="#84BE84" rx="3" ry="3" style="stroke:#038048;stroke-width:1.0;"/><text fill="#000000" font-family="sans-serif" font-size="11" lengthAdjust="spacing" textLength="250" x="263" y="216.6348">sort(graph: GraphType) -&gt; Iterable[NodeType]</text><!--MD5=[8eba1142fc18ee4afb4bc8ca68bfd9e4]
class DescendingTopologicalSort--><rect codeLine="25" fill="#EBEBEB" filter="url(#fbxc6modqz45n)" height="60.9551" id="DescendingTopologicalSort" style="stroke:#333333;stroke-width:1.5;" width="276" x="554" y="162"/><ellipse cx="610.25" cy="178" fill="#ADD1B2" rx="11" ry="11" style="stroke:#333333;stroke-width:1.0;"/><path d="M612.7231,184.1431 Q612.1421,184.4419 611.5029,184.5913 Q610.8638,184.7407 610.1582,184.7407 Q607.6514,184.7407 606.3315,183.0889 Q605.0117,181.437 605.0117,178.3159 Q605.0117,175.1865 606.3315,173.5347 Q607.6514,171.8828 610.1582,171.8828 Q610.8638,171.8828 611.5112,172.0322 Q612.1587,172.1816 612.7231,172.4805 L612.7231,175.2031 Q612.0923,174.6221 611.4988,174.3523 Q610.9053,174.0825 610.2744,174.0825 Q608.9297,174.0825 608.2449,175.1492 Q607.5601,176.2158 607.5601,178.3159 Q607.5601,180.4077 608.2449,181.4744 Q608.9297,182.541 610.2744,182.541 Q610.9053,182.541 611.4988,182.2712 Q612.0923,182.0015 612.7231,181.4204 Z " fill="#000000"/><text fill="#000000" font-family="sans-serif" font-size="12" lengthAdjust="spacing" textLength="155" x="630.75" y="182.5352">DescendingTopologicalSort</text><line style="stroke:#333333;stroke-width:1.5;" x1="555" x2="829" y1="194" y2="194"/><line style="stroke:#333333;stroke-width:1.5;" x1="555" x2="829" y1="202" y2="202"/><ellipse cx="565" cy="213" fill="#84BE84" rx="3" ry="3" style="stroke:#038048;stroke-width:1.0;"/><text fill="#000000" font-family="sans-serif" font-size="11" lengthAdjust="spacing" textLength="250" x="574" y="216.6348">sort(graph: GraphType) -&gt; Iterable[NodeType]</text><!--MD5=[8875adee0089f77d59078ed13acbabc5]
reverse link GraphExceptionInterface to TopologicalSortException--><path d="M120,115.7 C120,115.7 120,161.89 120,161.89 " fill="none" id="GraphExceptionInterface-backto-TopologicalSortException" style="stroke:#333333;stroke-width:1.0;"/><polygon fill="none" points="113,115.7,120,95.7,127,115.7,113,115.7" style="stroke:#333333;stroke-width:1.0;"/><!--MD5=[9731e2ac3c70486f211b6283969f81d4]
reverse link TopologicalSortException to AscendingTopologicalSort--><path codeLine="29" d="M213.36,193 C213.36,193 242.63,193 242.63,193 " fill="none" id="TopologicalSortException-backto-AscendingTopologicalSort" style="stroke:#333333;stroke-width:1.0;stroke-dasharray:7.0,7.0;"/><polygon fill="#333333" points="208.36,193,217.36,197,213.36,193,217.36,189,208.36,193" style="stroke:#333333;stroke-width:1.0;"/><text fill="#000000" font-family="sans-serif" font-size="13" lengthAdjust="spacing" textLength="37" x="209.5" y="206.5684">raises</text><!--MD5=[f8882240d7a1126cbe9592e3c03d9430]
reverse link TopologicalSortInterface to AscendingTopologicalSort--><path codeLine="30" d="M458.5,122.03 C458.5,122.03 458.5,161.98 458.5,161.98 " fill="none" id="TopologicalSortInterface-backto-AscendingTopologicalSort" style="stroke:#333333;stroke-width:1.0;"/><polygon fill="none" points="451.5,122.03,458.5,102.03,465.5,122.03,451.5,122.03" style="stroke:#333333;stroke-width:1.0;"/><!--MD5=[114793a9bdc30e3c0cd694272c24e792]
reverse link TopologicalSortInterface to DescendingTopologicalSort--><path codeLine="31" d="M614,122.03 C614,122.03 614,161.98 614,161.98 " fill="none" id="TopologicalSortInterface-backto-DescendingTopologicalSort" style="stroke:#333333;stroke-width:1.0;"/><polygon fill="none" points="607,122.03,614,102.03,621,122.03,607,122.03" style="stroke:#333333;stroke-width:1.0;"/><!--MD5=[77f87df02340bcb772bd699149ba625a]
@startuml

skinparam class {
  BackgroundColor #ebebeb
  ArrowColor      #333
  BorderColor     #333
}

skinparam lineType ortho

package md.python.graph {
  interface GraphExceptionInterface {}

  class TopologicalSortException extends GraphExceptionInterface {
    + CYCLE_DETECTED = 1
  }

  interface TopologicalSortInterface {
    + sort(graph: GraphType) -> Iterable[NodeType]
  }

  class AscendingTopologicalSort {
    + sort(graph: GraphType) -> Iterable[NodeType]
  }

  class DescendingTopologicalSort {
    + sort(graph: GraphType) -> Iterable[NodeType]
  }

  AscendingTopologicalSort .left.> TopologicalSortException : raises
  AscendingTopologicalSort -up-|>  TopologicalSortInterface
  DescendingTopologicalSort -up-|>  TopologicalSortInterface
}

@enduml

PlantUML version 1.2022.0(Tue Jan 11 19:16:42 MSK 2022)
(GPL source distribution)
Java Runtime: Java(TM) SE Runtime Environment
JVM: Java HotSpot(TM) 64-Bit Server VM
Default Encoding: UTF-8
Language: ru
Country: RU
--></g></svg>