<?xml version="1.0" encoding="UTF-8" standalone="no"?>
<!DOCTYPE svg PUBLIC "-//W3C//DTD SVG 1.1//EN"
 "http://www.w3.org/Graphics/SVG/1.1/DTD/svg11.dtd">
<!-- Generated by graphviz version 2.49.0 (20210828.1703)
 -->
<!-- Title: example Pages: 1 -->
<svg width="167pt" height="60pt"
 viewBox="0.00 0.00 167.00 60.00" xmlns="http://www.w3.org/2000/svg" xmlns:xlink="http://www.w3.org/1999/xlink">
<g id="graph0" class="graph" transform="scale(1 1) rotate(0) translate(4 56)">
<title>example</title>
<polygon fill="white" stroke="transparent" points="-4,4 -4,-56 163,-56 163,4 -4,4"/>
<!-- 1 -->
<g id="node1" class="node">
<title>1</title>
<polygon fill="none" stroke="black" points="29,-30 0,-30 0,0 29,0 29,-30"/>
<text text-anchor="middle" x="14.5" y="-10" font-family="Times,serif" font-size="20.00">1</text>
</g>
<!-- 2 -->
<g id="node2" class="node">
<title>2</title>
<polygon fill="none" stroke="black" points="94,-52 65,-52 65,-22 94,-22 94,-52"/>
<text text-anchor="middle" x="79.5" y="-32" font-family="Times,serif" font-size="20.00">2</text>
</g>
<!-- 1&#45;&gt;2 -->
<g id="edge1" class="edge">
<title>1&#45;&gt;2</title>
<path fill="none" stroke="black" d="M29.25,-26C29.25,-26 56.81,-26 56.81,-26"/>
<polygon fill="black" stroke="black" points="56.81,-28.8 64.81,-26 56.81,-23.2 56.81,-28.8"/>
</g>
<!-- 3 -->
<g id="node3" class="node">
<title>3</title>
<polygon fill="none" stroke="black" points="159,-52 130,-52 130,-22 159,-22 159,-52"/>
<text text-anchor="middle" x="144.5" y="-32" font-family="Times,serif" font-size="20.00">3</text>
</g>
<!-- 1&#45;&gt;3 -->
<g id="edge4" class="edge">
<title>1&#45;&gt;3</title>
<path fill="none" stroke="black" d="M29.22,-11C63.35,-11 145,-11 145,-11 145,-11 145,-13.88 145,-13.88"/>
<polygon fill="black" stroke="black" points="142.2,-13.88 145,-21.88 147.8,-13.88 142.2,-13.88"/>
</g>
<!-- 2&#45;&gt;3 -->
<g id="edge2" class="edge">
<title>2&#45;&gt;3</title>
<path fill="none" stroke="black" d="M94.25,-32C94.25,-32 121.81,-32 121.81,-32"/>
<polygon fill="black" stroke="black" points="121.81,-34.8 129.81,-32 121.81,-29.2 121.81,-34.8"/>
</g>
<!-- 3&#45;&gt;2 -->
<g id="edge3" class="edge">
<title>3&#45;&gt;2</title>
<path fill="none" stroke="black" d="M129.75,-42C129.75,-42 102.19,-42 102.19,-42"/>
<polygon fill="black" stroke="black" points="102.19,-39.2 94.19,-42 102.19,-44.8 102.19,-39.2"/>
</g>
</g>
</svg>
