<?xml version="1.0" encoding="UTF-8" standalone="no"?>
<!DOCTYPE svg PUBLIC "-//W3C//DTD SVG 1.1//EN"
 "http://www.w3.org/Graphics/SVG/1.1/DTD/svg11.dtd">
<!-- Generated by graphviz version 2.49.0 (20210828.1703)
 -->
<!-- Title: example Pages: 1 -->
<svg width="173pt" height="170pt"
 viewBox="0.00 0.00 173.00 170.00" xmlns="http://www.w3.org/2000/svg" xmlns:xlink="http://www.w3.org/1999/xlink">
<g id="graph0" class="graph" transform="scale(1 1) rotate(0) translate(4 166)">
<title>example</title>
<polygon fill="white" stroke="transparent" points="-4,4 -4,-166 169,-166 169,4 -4,4"/>
<!-- 7 -->
<g id="node1" class="node">
<title>7</title>
<polygon fill="none" stroke="black" points="104,-162 61,-162 61,-132 104,-132 104,-162"/>
<text text-anchor="middle" x="82.5" y="-142" font-family="Times,serif" font-size="20.00">7</text>
</g>
<!-- 5 -->
<g id="node2" class="node">
<title>5</title>
<polygon fill="none" stroke="black" points="159,-96 116,-96 116,-66 159,-66 159,-96"/>
<text text-anchor="middle" x="137.5" y="-76" font-family="Times,serif" font-size="20.00">5</text>
</g>
<!-- 7&#45;&gt;5 -->
<g id="edge1" class="edge">
<title>7&#45;&gt;5</title>
<path fill="none" stroke="black" d="M94.71,-131.8C102.11,-123.18 111.69,-112.04 119.9,-102.48"/>
<polygon fill="black" stroke="black" points="122.24,-104.06 125.33,-96.16 117.99,-100.41 122.24,-104.06"/>
</g>
<!-- 4 -->
<g id="node3" class="node">
<title>4</title>
<polygon fill="none" stroke="black" points="98,-96 55,-96 55,-66 98,-66 98,-96"/>
<text text-anchor="middle" x="76.5" y="-76" font-family="Times,serif" font-size="20.00">4</text>
</g>
<!-- 7&#45;&gt;4 -->
<g id="edge2" class="edge">
<title>7&#45;&gt;4</title>
<path fill="none" stroke="black" d="M81.17,-131.8C80.41,-123.68 79.44,-113.31 78.58,-104.15"/>
<polygon fill="black" stroke="black" points="81.36,-103.87 77.83,-96.16 75.79,-104.39 81.36,-103.87"/>
</g>
<!-- 3 -->
<g id="node4" class="node">
<title>3</title>
<polygon fill="none" stroke="black" points="104,-30 61,-30 61,0 104,0 104,-30"/>
<text text-anchor="middle" x="82.5" y="-10" font-family="Times,serif" font-size="20.00">3</text>
</g>
<!-- 5&#45;&gt;3 -->
<g id="edge3" class="edge">
<title>5&#45;&gt;3</title>
<path fill="none" stroke="black" d="M125.29,-65.8C117.89,-57.18 108.31,-46.04 100.1,-36.48"/>
<polygon fill="black" stroke="black" points="102.01,-34.41 94.67,-30.16 97.76,-38.06 102.01,-34.41"/>
</g>
<!-- 2 -->
<g id="node5" class="node">
<title>2</title>
<polygon fill="none" stroke="black" points="165,-30 122,-30 122,0 165,0 165,-30"/>
<text text-anchor="middle" x="143.5" y="-10" font-family="Times,serif" font-size="20.00">2</text>
</g>
<!-- 5&#45;&gt;2 -->
<g id="edge4" class="edge">
<title>5&#45;&gt;2</title>
<path fill="none" stroke="black" d="M138.83,-65.8C139.59,-57.68 140.56,-47.31 141.42,-38.15"/>
<polygon fill="black" stroke="black" points="144.21,-38.39 142.17,-30.16 138.64,-37.87 144.21,-38.39"/>
</g>
<!-- 4&#45;&gt;3 -->
<g id="edge8" class="edge">
<title>4&#45;&gt;3</title>
<path fill="none" stroke="black" d="M77.83,-65.8C78.59,-57.68 79.56,-47.31 80.42,-38.15"/>
<polygon fill="black" stroke="black" points="83.21,-38.39 81.17,-30.16 77.64,-37.87 83.21,-38.39"/>
</g>
<!-- 1 -->
<g id="node7" class="node">
<title>1</title>
<polygon fill="none" stroke="black" points="43,-30 0,-30 0,0 43,0 43,-30"/>
<text text-anchor="middle" x="21.5" y="-10" font-family="Times,serif" font-size="20.00">1</text>
</g>
<!-- 4&#45;&gt;1 -->
<g id="edge9" class="edge">
<title>4&#45;&gt;1</title>
<path fill="none" stroke="black" d="M64.29,-65.8C56.89,-57.18 47.31,-46.04 39.1,-36.48"/>
<polygon fill="black" stroke="black" points="41.01,-34.41 33.67,-30.16 36.76,-38.06 41.01,-34.41"/>
</g>
<!-- 8 -->
<g id="node6" class="node">
<title>8</title>
<polygon fill="none" stroke="black" points="43,-162 0,-162 0,-132 43,-132 43,-162"/>
<text text-anchor="middle" x="21.5" y="-142" font-family="Times,serif" font-size="20.00">8</text>
</g>
<!-- 8&#45;&gt;5 -->
<g id="edge5" class="edge">
<title>8&#45;&gt;5</title>
<path fill="none" stroke="black" d="M43.05,-134.11C61.49,-123.94 88.19,-109.2 108.51,-98"/>
<polygon fill="black" stroke="black" points="110.02,-100.36 115.67,-94.04 107.32,-95.45 110.02,-100.36"/>
</g>
<!-- 8&#45;&gt;1 -->
<g id="edge6" class="edge">
<title>8&#45;&gt;1</title>
<path fill="none" stroke="black" d="M21.5,-131.84C21.5,-109.28 21.5,-64.98 21.5,-38.18"/>
<polygon fill="black" stroke="black" points="24.3,-38.14 21.5,-30.14 18.7,-38.14 24.3,-38.14"/>
</g>
<!-- 6 -->
<g id="node8" class="node">
<title>6</title>
<polygon fill="none" stroke="black" points="165,-162 122,-162 122,-132 165,-132 165,-162"/>
<text text-anchor="middle" x="143.5" y="-142" font-family="Times,serif" font-size="20.00">6</text>
</g>
<!-- 6&#45;&gt;5 -->
<g id="edge7" class="edge">
<title>6&#45;&gt;5</title>
<path fill="none" stroke="black" d="M142.17,-131.8C141.41,-123.68 140.44,-113.31 139.58,-104.15"/>
<polygon fill="black" stroke="black" points="142.36,-103.87 138.83,-96.16 136.79,-104.39 142.36,-103.87"/>
</g>
</g>
</svg>
